<?xml version="1.0"?>
<svg xmlns="http://www.w3.org/2000/svg" height="512px" viewBox="0 0 512 512" width="512px"><g><g id="Outline"><path d="m488 416h-56v-32a8 8 0 0 0 -8-8h-160v-48h-16v48h-160a8 8 0 0 0 -8 8v32h-56a8 8 0 0 0 -8 8v64a8 8 0 0 0 8 8h128a8 8 0 0 0 8-8v-64a8 8 0 0 0 -8-8h-56v-24h152v24h-56a8 8 0 0 0 -8 8v64a8 8 0 0 0 8 8h128a8 8 0 0 0 8-8v-64a8 8 0 0 0 -8-8h-56v-24h152v24h-56a8 8 0 0 0 -8 8v64a8 8 0 0 0 8 8h128a8 8 0 0 0 8-8v-64a8 8 0 0 0 -8-8zm-344 64h-112v-48h112zm168 0h-112v-48h112zm168 0h-112v-48h112z" data-original="#000000" class="active-path" data-old_color="#000000" fill="#1959c8"/><path d="m48 448h16v16h-16z" data-original="#000000" class="active-path" data-old_color="#000000" fill="#1959c8"/><path d="m80 448h48v16h-48z" data-original="#000000" class="active-path" data-old_color="#000000" fill="#1959c8"/><path d="m216 448h16v16h-16z" data-original="#000000" class="active-path" data-old_color="#000000" fill="#1959c8"/><path d="m248 448h48v16h-48z" data-original="#000000" class="active-path" data-old_color="#000000" fill="#1959c8"/><path d="m384 448h16v16h-16z" data-original="#000000" class="active-path" data-old_color="#000000" fill="#1959c8"/><path d="m416 448h48v16h-48z" data-original="#000000" class="active-path" data-old_color="#000000" fill="#1959c8"/><path d="m360 320v-272a32.036 32.036 0 0 0 -32-32h-144a32.036 32.036 0 0 0 -32 32v272a32.036 32.036 0 0 0 32 32h48v-16h-48a16.019 16.019 0 0 1 -16-16v-272a16.019 16.019 0 0 1 16-16h144a16.019 16.019 0 0 1 16 16v272a16.019 16.019 0 0 1 -16 16h-48v16h48a32.036 32.036 0 0 0 32-32z" data-original="#000000" class="active-path" data-old_color="#000000" fill="#1959c8"/><path d="m232 48h16v16h-16z" data-original="#000000" class="active-path" data-old_color="#000000" fill="#1959c8"/><path d="m264 48h16v16h-16z" data-original="#000000" class="active-path" data-old_color="#000000" fill="#1959c8"/><path d="m200 136v16h16.805a39.764 39.764 0 0 0 5.839 14.042l-11.9 11.9 11.314 11.315 11.9-11.9a39.774 39.774 0 0 0 14.042 5.843v16.8h16v-16.8a39.774 39.774 0 0 0 14.042-5.839l11.9 11.9 11.314-11.315-11.9-11.9a39.764 39.764 0 0 0 5.844-14.046h16.8v-16h-16.8a39.764 39.764 0 0 0 -5.839-14.042l11.9-11.9-11.32-11.313-11.9 11.9a39.774 39.774 0 0 0 -14.041-5.84v-16.805h-16v16.805a39.774 39.774 0 0 0 -14.042 5.839l-11.9-11.9-11.313 11.316 11.9 11.9a39.764 39.764 0 0 0 -5.84 14.04zm56-16a24 24 0 1 1 -24 24 24.028 24.028 0 0 1 24-24z" data-original="#000000" class="active-path" data-old_color="#000000" fill="#1959c8"/><path d="m192 224h16v16h-16z" data-original="#000000" class="active-path" data-old_color="#000000" fill="#1959c8"/><path d="m224 224h96v16h-96z" data-original="#000000" class="active-path" data-old_color="#000000" fill="#1959c8"/><path d="m192 256h128v16h-128z" data-original="#000000" class="active-path" data-old_color="#000000" fill="#1959c8"/><path d="m248 296h16v16h-16z" data-original="#000000" class="active-path" data-old_color="#000000" fill="#1959c8"/></g></g> </svg>
