<?xml version="1.0"?>
<svg xmlns="http://www.w3.org/2000/svg" id="Capa_1" enable-background="new 0 0 512 512" height="512px" viewBox="0 0 512 512" width="512px"><g><path d="m151.649 118.255c.231-2.485.731-4.923 1.496-7.293 2.325-3.234 4.218-6.798 5.594-10.608 6.509-8.382 16.621-13.354 27.261-13.354h28c4.663 0 9.181.911 13.429 2.707 3.817 1.617 8.216-.172 9.829-3.986s-.171-8.215-3.986-9.828c-.997-.422-2.004-.809-3.021-1.163 8.166-7.912 13.249-18.988 13.249-31.23 0-23.986-19.514-43.5-43.5-43.5s-43.5 19.514-43.5 43.5c0 12.253 5.093 23.338 13.272 31.252-3.125 1.088-6.135 2.485-8.979 4.167-3.232-20.817-21.277-36.8-42.984-36.8-23.986 0-43.5 19.514-43.5 43.5 0 12.244 5.085 23.322 13.254 31.234-1.965.682-3.888 1.489-5.757 2.417-5.567-2.593-11.77-4.042-18.305-4.042-23.986 0-43.5 19.514-43.5 43.5 0 12.246 5.087 23.325 13.257 31.238-19.341 6.738-33.258 25.155-33.258 46.763v34c0 17.369 14.131 31.5 31.5 31.5h20.183c4.142 0 7.5-3.357 7.5-7.5s-3.358-7.5-7.5-7.5h-20.183c-9.098 0-16.5-7.402-16.5-16.5v-34c0-19.023 15.477-34.5 34.5-34.5h28c19.023 0 34.5 15.477 34.5 34.5v34c0 9.098-7.402 16.5-16.5 16.5h-11.445c-4.142 0-7.5 3.357-7.5 7.5s3.358 7.5 7.5 7.5h11.445c17.369 0 31.5-14.131 31.5-31.5v-34c0-2.587-.2-5.128-.584-7.608h23.394c17.369 0 31.5-14.131 31.5-31.5v-10.621h50.69c17.369 0 31.5-14.131 31.5-31.5v-34c0-6.584-1.273-12.982-3.785-19.017-1.592-3.825-5.982-5.636-9.807-4.042-3.824 1.592-5.634 5.982-4.042 9.806 1.748 4.198 2.634 8.657 2.634 13.253v34c0 9.098-7.402 16.5-16.5 16.5h-50.69v-8.38c-.279-4.961-1.601-16.482-9.639-28.01-6.981-10.012-15.606-15.122-20.022-17.355zm48.351-103.255c15.715 0 28.5 12.785 28.5 28.5s-12.785 28.5-28.5 28.5-28.5-12.785-28.5-28.5 12.785-28.5 28.5-28.5zm-82.192 42.119c15.715 0 28.5 12.785 28.5 28.5 0 2.709-.38 5.332-1.09 7.817-2.216 3.208-4.038 6.668-5.427 10.302-5.232 6.336-13.144 10.381-21.983 10.381-15.715 0-28.5-12.785-28.5-28.5s12.785-28.5 28.5-28.5zm-54.308 73.11c15.715 0 28.5 12.785 28.5 28.5s-12.785 28.5-28.5 28.5-28.5-12.786-28.5-28.5 12.785-28.5 28.5-28.5zm102.81 67.391c0 9.098-7.402 16.5-16.5 16.5h-28.282c-5.784-11.218-15.731-19.955-27.786-24.154 8.171-7.913 13.257-18.992 13.257-31.238 0-11.009-4.111-21.076-10.879-28.746 2.507-.571 5.085-.862 7.689-.862h28c3.411 0 6.78.497 10.014 1.478 14.646 4.44 24.486 17.711 24.486 33.022z" data-original="#000000" class="active-path" data-old_color="#000000" fill="#1959c8"/><path d="m373.5 265c-59.827 0-108.5 48.673-108.5 108.5s48.673 108.5 108.5 108.5 108.5-48.673 108.5-108.5-48.673-108.5-108.5-108.5zm0 202c-51.556 0-93.5-41.944-93.5-93.5s41.944-93.5 93.5-93.5 93.5 41.944 93.5 93.5-41.944 93.5-93.5 93.5z" data-original="#000000" class="active-path" data-old_color="#000000" fill="#1959c8"/><path d="m485.727 292.321c-2.43-3.354-7.12-4.104-10.474-1.673s-4.104 7.119-1.673 10.474c15.321 21.146 23.42 46.174 23.42 72.378 0 68.099-55.402 123.5-123.5 123.5s-123.5-55.401-123.5-123.5 55.402-123.5 123.5-123.5c29.099 0 57.356 10.314 79.565 29.042 3.167 2.671 7.898 2.267 10.568-.898 2.67-3.167 2.268-7.898-.898-10.568-24.911-21.008-56.602-32.576-89.235-32.576-76.369 0-138.5 62.131-138.5 138.5s62.131 138.5 138.5 138.5 138.5-62.131 138.5-138.5c0-29.386-9.085-57.457-26.273-81.179z" data-original="#000000" class="active-path" data-old_color="#000000" fill="#1959c8"/><path d="m382.848 325.042v-10.485c0-4.143-3.358-7.5-7.5-7.5s-7.5 3.357-7.5 7.5v10.485c-11.678 1.86-20.632 12.001-20.632 24.195v7.264c0 13.51 10.991 24.5 24.5 24.5h14.018c1.514 0 2.746 1.231 2.746 2.745v14.019c0 5.238-4.262 9.5-9.5 9.5h-7.264c-5.238 0-9.5-4.262-9.5-9.5v-3.632c0-4.143-3.358-7.5-7.5-7.5s-7.5 3.357-7.5 7.5v3.632c0 12.194 8.954 22.334 20.632 24.195v10.485c0 4.143 3.358 7.5 7.5 7.5s7.5-3.357 7.5-7.5v-10.485c11.678-1.86 20.632-12.001 20.632-24.195v-14.019c0-9.785-7.96-17.745-17.746-17.745h-14.018c-5.238 0-9.5-4.262-9.5-9.5v-7.264c0-5.238 4.262-9.5 9.5-9.5h7.264c5.238 0 9.5 4.262 9.5 9.5v3.632c0 4.143 3.358 7.5 7.5 7.5s7.5-3.357 7.5-7.5v-3.632c0-12.195-8.954-22.335-20.632-24.195z" data-original="#000000" class="active-path" data-old_color="#000000" fill="#1959c8"/><path d="m330.894 87.319c41.823 0 76.515 31.111 82.15 71.406l-5.755-4.251c-3.332-2.463-8.027-1.757-10.489 1.576-2.461 3.332-1.755 8.027 1.577 10.488l18.512 13.674c1.298.96 2.862 1.468 4.456 1.468.39 0 .781-.03 1.171-.092 1.984-.313 3.759-1.41 4.928-3.044l14.179-19.813c2.411-3.368 1.634-8.053-1.734-10.464-3.369-2.41-8.053-1.634-10.464 1.735l-2.112 2.951c-8.199-45.78-48.315-80.635-96.418-80.635-4.142 0-7.5 3.357-7.5 7.5s3.356 7.501 7.499 7.501z" data-original="#000000" class="active-path" data-old_color="#000000" fill="#1959c8"/><path d="m157.347 412.025c-2.463-3.333-7.159-4.038-10.489-1.576-3.332 2.461-4.038 7.156-1.577 10.488l4.251 5.755c-40.295-5.635-71.406-40.327-71.406-82.149 0-4.143-3.358-7.5-7.5-7.5s-7.5 3.357-7.5 7.5c0 48.103 34.854 88.218 80.634 96.417l-2.951 2.112c-3.368 2.411-4.145 7.096-1.734 10.464 1.464 2.047 3.768 3.137 6.105 3.137 1.511 0 3.036-.456 4.358-1.401l19.814-14.179c1.633-1.169 2.73-2.944 3.043-4.929s-.182-4.012-1.375-5.627z" data-original="#000000" class="active-path" data-old_color="#000000" fill="#1959c8"/></g> </svg>
