<?xml version="1.0"?>
<svg xmlns="http://www.w3.org/2000/svg" height="512px" viewBox="0 -29 512 512" width="512px"><g><path d="m504.5 311.652344c-4.140625 0-7.5 3.355468-7.5 7.5v98.289062c0 11.761719-9.570312 21.332032-21.332031 21.332032h-290.40625c-4.144531 0-7.5 3.359374-7.5 7.5 0 4.144531 3.355469 7.5 7.5 7.5h290.40625c20.03125 0 36.332031-16.296876 36.332031-36.332032v-98.289062c0-4.144532-3.359375-7.5-7.5-7.5zm0 0" data-original="#000000" class="active-path" data-old_color="#000000" fill="#1959c8"/><path d="m475.667969 135.597656h-68.085938c-3.382812-30.28125-15.785156-59.015625-35.761719-82.308594-2.695312-3.144531-7.429687-3.507812-10.574218-.8125-3.144532 2.695313-3.507813 7.433594-.8125 10.578126 21.339844 24.878906 33.089844 56.65625 33.089844 89.46875 0 75.832031-61.691407 137.527343-137.523438 137.527343s-137.527344-61.695312-137.527344-137.527343c0-75.832032 61.695313-137.523438 137.527344-137.523438 29.042969 0 56.808594 8.945312 80.300781 25.875 3.363281 2.425781 8.050781 1.660156 10.472657-1.699219 2.421874-3.359375 1.660156-8.046875-1.703126-10.46875-26.0625-18.78125-56.863281-28.707031-89.070312-28.707031-78.382812 0-143.132812 59.433594-151.582031 135.597656h-68.085938c-20.03125 0-36.332031 16.296875-36.332031 36.332032v245.511718c0 20.035156 16.300781 36.332032 36.332031 36.332032h114.40625c4.144531 0 7.5-3.355469 7.5-7.5 0-4.140626-3.355469-7.5-7.5-7.5h-114.40625c-11.761719 0-21.332031-9.570313-21.332031-21.332032v-147.890625h143.292969c26.484375 22.148438 60.5625 35.5 97.707031 35.5s71.226562-13.351562 97.707031-35.5h143.292969v15.078125c0 4.140625 3.359375 7.5 7.5 7.5s7.5-3.359375 7.5-7.5v-112.699218c0-20.035157-16.300781-36.332032-36.332031-36.332032zm-439.335938 15h67.167969c-.007812.640625-.023438 1.285156-.023438 1.929688 0 9.453125.871094 18.710937 2.527344 27.695312h-91.003906v-8.292968c0-11.765626 9.570312-21.332032 21.332031-21.332032zm-21.332031 44.625h94.566406c6.511719 22.300782 17.988282 42.503906 33.15625 59.328125h-127.722656zm460.667969-44.625c11.761719 0 21.332031 9.566406 21.332031 21.332032v8.292968h-91c1.652344-8.984375 2.527344-18.242187 2.527344-27.695312 0-.644532-.015625-1.289063-.023438-1.929688zm-106.390625 103.953125c15.167968-16.824219 26.644531-37.027343 33.15625-59.328125h94.566406v59.328125zm0 0" data-original="#000000" class="active-path" data-old_color="#000000" fill="#1959c8"/><path d="m261.105469 156.800781c1.789062-3.734375.210937-8.214843-3.523438-10-3.738281-1.789062-8.214843-.210937-10.003906 3.523438-21.054687 43.984375-62.238281 74.289062-62.652344 74.589843-3.347656 2.4375-4.089843 7.121094-1.660156 10.472657 1.46875 2.023437 3.753906 3.097656 6.078125 3.097656 1.523438 0 3.066406-.464844 4.398438-1.433594 1.8125-1.3125 44.628906-32.75 67.363281-80.25zm0 0" data-original="#000000" class="active-path" data-old_color="#000000" fill="#1959c8"/><path d="m349.609375 207.488281c1.042969.5 2.148437.734375 3.234375.734375 2.796875 0 5.480469-1.570312 6.769531-4.261718 13.460938-28.121094 15.167969-59.800782 4.800781-89.199219-10.363281-29.40625-31.554687-53.011719-59.667968-66.464844-15.640625-7.488281-33.066406-11.445313-50.398438-11.445313-44.675781 0-85.996094 26.03125-105.277344 66.320313-1.785156 3.734375-.207031 8.214844 3.53125 10.003906 3.738282 1.789063 8.214844.207031 10-3.53125 16.800782-35.109375 52.8125-57.792969 91.746094-57.792969 15.101563 0 30.292969 3.449219 43.921875 9.976563 24.5 11.722656 42.964844 32.292969 52 57.921875 9.03125 25.621094 7.546875 53.226562-4.1875 77.734375-1.789062 3.734375-.210937 8.214844 3.527344 10.003906zm0 0" data-original="#000000" class="active-path" data-old_color="#000000" fill="#1959c8"/><path d="m286.386719 260.429688c1.421875 1.230468 3.171875 1.835937 4.914062 1.835937 2.097657 0 4.183594-.875 5.667969-2.582031 18.082031-20.820313 32.660156-42.679688 43.332031-64.96875 10.988281-22.964844 12.378907-48.832032 3.921875-72.835938-8.472656-24.011718-25.777344-43.28125-48.726562-54.269531-12.753906-6.113281-26.984375-9.34375-41.152344-9.34375-36.476562 0-70.214844 21.253906-85.953125 54.144531-6.175781 12.898438-17.113281 24.871094-25.199219 32.644532-2.988281 2.871093-3.082031 7.621093-.210937 10.605468 2.871093 2.988282 7.617187 3.078125 10.605469.210938 8.980468-8.636719 21.1875-22.058594 28.335937-36.980469 13.261719-27.714844 41.6875-45.625 72.421875-45.625 11.9375 0 23.925781 2.722656 34.671875 7.875 19.339844 9.257813 33.921875 25.496094 41.058594 45.726563 7.128906 20.226562 5.953125 42.019531-3.304688 61.371093-10.089843 21.074219-23.925781 41.804688-41.128906 61.609375-2.714844 3.128906-2.378906 7.867188.746094 10.582032zm0 0" data-original="#000000" class="active-path" data-old_color="#000000" fill="#1959c8"/><path d="m256.308594 268.203125c1.878906 0 3.765625-.703125 5.222656-2.117187 17.777344-17.257813 42.519531-45.25 59.453125-80.621094 8.519531-17.792969 9.601563-37.847656 3.039063-56.46875-6.558594-18.609375-19.972657-33.554688-37.773438-42.070313-9.90625-4.738281-20.941406-7.246093-31.90625-7.246093-28.277344 0-54.4375 16.480468-66.644531 41.984374-11.882813 24.816407-36.578125 45.355469-41.410157 49.222657-3.234374 2.589843-3.757812 7.308593-1.167968 10.542969 2.585937 3.234374 7.308594 3.757812 10.539062 1.167968 7.414063-5.933594 32.613282-27.390625 45.566406-54.457031 9.730469-20.324219 30.582032-33.460937 53.117188-33.460937 8.742188 0 17.535156 2 25.433594 5.777343 14.183594 6.785157 24.871094 18.691407 30.101562 33.523438 5.226563 14.839843 4.367188 30.824219-2.425781 45.003906-15.972656 33.375-39.46875 59.933594-56.371094 76.335937-2.972656 2.886719-3.042969 7.632813-.15625 10.605469 1.46875 1.515625 3.425781 2.277344 5.382813 2.277344zm0 0" data-original="#000000" class="active-path" data-old_color="#000000" fill="#1959c8"/><path d="m228.515625 264.664062c1.730469 0 3.46875-.59375 4.882813-1.8125 17.003906-14.609374 48.484374-45.289062 68.269531-86.628906 6.050781-12.636718 6.820312-26.878906 2.160156-40.109375-4.660156-13.210937-14.1875-23.824219-26.824219-29.871093-7.035156-3.367188-14.871094-5.148438-22.660156-5.148438-20.074219 0-38.652344 11.703125-47.332031 29.8125-15.609375 32.621094-48.394531 57.53125-48.652344 57.726562-1.882813 1.378907-3.632813 2.84375-5.203125 4.347657-2.992188 2.863281-3.097656 7.609375-.230469 10.605469 2.863281 2.988281 7.609375 3.09375 10.601563.226562 1.101562-1.050781 2.347656-2.089844 3.777344-3.140625 1.464843-1.101563 36.0625-27.398437 53.238281-63.285156 6.195312-12.933594 19.464843-21.292969 33.800781-21.292969 5.5625 0 11.15625 1.273438 16.179688 3.675781 9.027343 4.324219 15.828124 11.898438 19.15625 21.332031 3.328124 9.449219 2.78125 19.621094-1.542969 28.644532-18.601563 38.863281-48.40625 67.890625-64.515625 81.730468-3.140625 2.699219-3.5 7.433594-.800782 10.578126 1.484376 1.726562 3.582032 2.609374 5.695313 2.609374zm0 0" data-original="#000000" class="active-path" data-old_color="#000000" fill="#1959c8"/><path d="m205.613281 255.703125c1.601563 0 3.214844-.511719 4.582031-1.566406 11.335938-8.765625 50.039063-40.964844 72.15625-87.167969 3.582032-7.476562 4.035157-15.90625 1.277344-23.722656-2.757812-7.832032-8.394531-14.113282-15.867187-17.683594-4.152344-2-8.792969-3.054688-13.417969-3.054688-11.878906 0-22.875 6.921876-28.015625 17.640626-17.6875 36.960937-52.9375 63.964843-55.289063 65.742187-2.882812 2.101563-5.351562 4.636719-7.339843 7.539063-2.339844 3.417968-1.464844 8.085937 1.953125 10.425781 3.414062 2.339843 8.085937 1.46875 10.421875-1.949219 1.027343-1.5 2.316406-2.816406 3.828125-3.914062.035156-.023438.085937-.0625.117187-.085938 4.109375-3.085938 40.699219-31.28125 59.835938-71.277344 2.65625-5.539062 8.34375-9.121094 14.488281-9.121094 2.390625 0 4.78125.542969 6.933594 1.582032 3.867187 1.847656 6.78125 5.09375 8.203125 9.140625 1.425781 4.042969 1.191406 8.398437-.65625 12.261719-20.691407 43.226562-57.132813 73.523437-67.808594 81.78125-3.273437 2.535156-3.875 7.246093-1.34375 10.519531 1.480469 1.910156 3.699219 2.914062 5.941406 2.910156zm0 0" data-original="#000000" class="active-path" data-old_color="#000000" fill="#1959c8"/><path d="m46.761719 392.226562c0 9.652344 7.847656 17.5 17.5 17.5h63.621093c9.648438 0 17.5-7.847656 17.5-17.5v-36.996093c0-9.648438-7.851562-17.5-17.5-17.5h-63.621093c-9.652344 0-17.5 7.851562-17.5 17.5zm15-36.996093c0-1.378907 1.121093-2.5 2.5-2.5h63.621093c1.375 0 2.5 1.121093 2.5 2.5v36.996093c0 1.378907-1.125 2.5-2.5 2.5h-63.621093c-1.378907 0-2.5-1.121093-2.5-2.5zm0 0" data-original="#000000" class="active-path" data-old_color="#000000" fill="#1959c8"/><path d="m457.738281 358.769531c4.144531 0 7.5-3.359375 7.5-7.5 0-4.144531-3.355469-7.5-7.5-7.5h-38.996093c-4.140626 0-7.5 3.355469-7.5 7.5 0 4.140625 3.359374 7.5 7.5 7.5zm0 0" data-original="#000000" class="active-path" data-old_color="#000000" fill="#1959c8"/><path d="m331.746094 382.730469c0 4.140625 3.359375 7.5 7.5 7.5h118.492187c4.144531 0 7.5-3.359375 7.5-7.5 0-4.144531-3.355469-7.5-7.5-7.5h-118.492187c-4.140625 0-7.5 3.355469-7.5 7.5zm0 0" data-original="#000000" class="active-path" data-old_color="#000000" fill="#1959c8"/><path d="m339.246094 409.726562h118.492187c4.144531 0 7.5-3.355468 7.5-7.5 0-4.140624-3.355469-7.5-7.5-7.5h-118.492187c-4.140625 0-7.5 3.359376-7.5 7.5 0 4.144532 3.359375 7.5 7.5 7.5zm0 0" data-original="#000000" class="active-path" data-old_color="#000000" fill="#1959c8"/><path d="m54.261719 322.769531h15.738281c4.140625 0 7.5-3.359375 7.5-7.5 0-4.144531-3.359375-7.5-7.5-7.5h-15.738281c-4.144531 0-7.5 3.355469-7.5 7.5 0 4.140625 3.355469 7.5 7.5 7.5zm0 0" data-original="#000000" class="active-path" data-old_color="#000000" fill="#1959c8"/><path d="m54.261719 302.183594h15.738281c4.140625 0 7.5-3.355469 7.5-7.5 0-4.140625-3.359375-7.5-7.5-7.5h-15.738281c-4.144531 0-7.5 3.359375-7.5 7.5 0 4.144531 3.355469 7.5 7.5 7.5zm0 0" data-original="#000000" class="active-path" data-old_color="#000000" fill="#1959c8"/></g> </svg>
