<?xml version="1.0"?>
<svg xmlns="http://www.w3.org/2000/svg" viewBox="0 0 64 64" width="512px" height="512px"><g><g id="Transfer"><path d="M9,33a1,1,0,0,1-1-1A24.028,24.028,0,0,1,32,8a1,1,0,0,1,0,2A22.025,22.025,0,0,0,10,32,1,1,0,0,1,9,33Z" data-original="#000000" class="active-path" data-old_color="#000000" fill="#1959c8"/><path d="M32,56a1,1,0,0,1,0-2A22.025,22.025,0,0,0,54,32a1,1,0,0,1,2,0A24.028,24.028,0,0,1,32,56Z" data-original="#000000" class="active-path" data-old_color="#000000" fill="#1959c8"/><path d="M54.351,12H58a1,1,0,0,0,0-2H52a1,1,0,0,0-1,1v6a1,1,0,0,0,2,0V13.487A27.711,27.711,0,0,1,60,32,28,28,0,0,1,15.6,54.7a1,1,0,1,0-1.171,1.62A30,30,0,0,0,62,32,29.687,29.687,0,0,0,54.351,12Z" data-original="#000000" class="active-path" data-old_color="#000000" fill="#1959c8"/><path d="M49.585,7.691A30,30,0,0,0,2,32,29.687,29.687,0,0,0,9.649,52H6a1,1,0,0,0,0,2h6a1,1,0,0,0,1-1V47a1,1,0,0,0-2,0v3.513A27.711,27.711,0,0,1,4,32,28,28,0,0,1,48.411,9.311a1,1,0,1,0,1.174-1.62Z" data-original="#000000" class="active-path" data-old_color="#000000" fill="#1959c8"/><circle cx="32" cy="32" r="6" data-original="#000000" class="active-path" data-old_color="#000000" fill="#1959c8"/><path d="M49,35V29H44.37a1,1,0,0,1-.953-.7,12.328,12.328,0,0,0-.731-1.776,1,1,0,0,1,.187-1.154L46.146,22.1,41.9,17.854l-3.273,3.273a1,1,0,0,1-1.154.187,12.323,12.323,0,0,0-1.776-.731,1,1,0,0,1-.7-.953V15H29v4.63a1,1,0,0,1-.7.953,12.323,12.323,0,0,0-1.776.731,1,1,0,0,1-1.154-.187L22.1,17.854,17.854,22.1l3.273,3.273a1,1,0,0,1,.187,1.154,12.328,12.328,0,0,0-.731,1.776,1,1,0,0,1-.953.7H15v6h4.63a1,1,0,0,1,.953.7,12.328,12.328,0,0,0,.731,1.776,1,1,0,0,1-.187,1.154L17.854,41.9,22.1,46.146l3.273-3.273a1,1,0,0,1,1.154-.187,12.323,12.323,0,0,0,1.776.731,1,1,0,0,1,.7.953V49h6V44.37a1,1,0,0,1,.7-.953,12.323,12.323,0,0,0,1.776-.731,1,1,0,0,1,1.154.187L41.9,46.146,46.146,41.9l-3.273-3.273a1,1,0,0,1-.187-1.154,12.328,12.328,0,0,0,.731-1.776,1,1,0,0,1,.953-.7Zm-4-4h2v2H45ZM19,33H17V31h2ZM31,17h2v2H31ZM22.1,43.313,20.687,41.9,22.1,40.485,23.515,41.9Zm0-19.8L20.687,22.1,22.1,20.687,23.515,22.1ZM33,47H31V45h2Zm-1-7a8,8,0,1,1,8-8A8.009,8.009,0,0,1,32,40Zm11.313,1.9L41.9,43.313,40.485,41.9,41.9,40.485ZM41.9,23.515,40.485,22.1,41.9,20.687,43.313,22.1Z" data-original="#000000" class="active-path" data-old_color="#000000" fill="#1959c8"/></g></g> </svg>
