<?xml version="1.0"?>
<svg xmlns="http://www.w3.org/2000/svg" id="Capa_1" enable-background="new 0 0 512 512" height="512px" viewBox="0 0 512 512" width="512px"><g><g><g><path d="m429.345 393.193c7.919 0 14.361-6.442 14.361-14.361v-25.044c0-4.143-3.358-7.5-7.5-7.5s-7.5 3.357-7.5 7.5v24.405h-137.863v-25.426c0-20.34-10.857-38.719-28.335-47.966-7.331-3.878-15.866-7.47-24.411-10.338 8.228-8.669 13.293-20.368 13.293-33.235-.264-7.456.874-13.918-1.932-23.546-.034-.125-.066-.25-.106-.373-5.976-19.906-24.459-34.455-46.286-34.455-26.646 0-48.324 21.678-48.324 48.324v10.05c0 12.963 5.14 24.741 13.477 33.428-8.377 2.842-16.714 6.366-23.858 10.146-17.478 9.246-28.334 27.626-28.334 47.965v25.426h-32.733v-139.88c0-4.143-3.358-7.5-7.5-7.5s-7.5 3.357-7.5 7.5v140.52c0 7.919 6.442 14.361 14.361 14.361h346.69zm-259.602-131.964v-2.55h19.614c7.268 0 14.101-2.83 19.239-7.969 2.306-2.307 5.372-3.576 8.633-3.576h18.908c.419 3.442.186 4.731.254 14.095 0 18.375-14.949 33.324-33.324 33.324s-33.324-14.949-33.324-33.324zm33.323-43.375c11.297 0 21.292 5.656 27.322 14.279h-13.16c-7.268 0-14.101 2.83-19.24 7.97-2.305 2.306-5.371 3.575-8.632 3.575h-18.752c3.413-14.773 16.667-25.824 32.462-25.824zm-72.039 134.914c0-14.767 7.797-28.065 20.349-34.706 7.496-3.966 19.779-9.191 32.579-12.457 5.865 2.536 12.325 3.948 19.111 3.948 6.893 0 13.447-1.461 19.386-4.073 12.923 3.242 25.4 8.538 33.041 12.581 12.552 6.641 20.35 19.939 20.35 34.706v25.426h-21.128v-17.108c0-4.143-3.358-7.5-7.5-7.5s-7.5 3.357-7.5 7.5v17.108h-72.559v-17.108c0-4.143-3.358-7.5-7.5-7.5s-7.5 3.357-7.5 7.5v17.108h-21.128v-25.425z" data-original="#000000" class="active-path" data-old_color="#000000" fill="#1959c8"/><path d="m75.794 210.75c4.142 0 7.5-3.357 7.5-7.5v-26.425h256.864v88.479c0 7.958 6.475 14.433 14.433 14.433h74.115v38.988c0 4.143 3.358 7.5 7.5 7.5s7.5-3.357 7.5-7.5v-57.867c0-.025 0-.051 0-.076v-84.595c0-7.919-6.442-14.361-14.361-14.361h-346.69c-7.919 0-14.361 6.442-14.361 14.361v27.063c0 4.143 3.358 7.5 7.5 7.5zm279.364 53.987v-2.401c14.306-31.408 59.155-31.597 73.548-.001v2.402zm26.511-51.315c0-5.659 4.604-10.264 10.263-10.264s10.264 4.604 10.264 10.264-4.604 10.263-10.264 10.263-10.263-4.604-10.263-10.263zm47.037 24.193c-4.71-4.181-10.106-7.528-15.962-9.893 2.805-4.069 4.452-8.995 4.452-14.3 0-13.931-11.333-25.264-25.264-25.264-13.93 0-25.263 11.333-25.263 25.264 0 5.305 1.647 10.231 4.452 14.3-5.856 2.365-11.253 5.712-15.963 9.894v-60.79h73.548z" data-original="#000000" class="active-path" data-old_color="#000000" fill="#1959c8"/><path d="m492.075 413.398h-13.163v-253.28c0-18.472-15.027-33.499-33.499-33.499h-98.09c-4.119-14.767-16.801-25.596-32.265-27.218 1.214-4.831 1.86-9.869 1.86-15.036 0-33.59-27.328-60.918-60.918-60.918s-60.918 27.328-60.918 60.918c0 5.167.646 10.205 1.86 15.035-15.464 1.623-28.146 12.451-32.265 27.219h-98.09c-18.471 0-33.499 15.027-33.499 33.499v253.28h-13.163c-10.987 0-19.925 8.939-19.925 19.926 0 30.453 24.776 55.229 55.229 55.229h401.542c30.453 0 55.229-24.775 55.229-55.229 0-10.987-8.938-19.926-19.925-19.926zm-160.764-286.779h-31.356c3.608-3.738 6.71-7.916 9.238-12.437.267.073 15.191-1.347 22.118 12.437zm-75.311-88.172c25.319 0 45.918 20.599 45.918 45.918 0 18.91-11.245 35.161-27.963 42.254h-35.91c-16.764-7.113-27.963-23.392-27.963-42.254 0-25.319 20.599-45.918 45.918-45.918zm-53.192 75.736c2.528 4.521 5.63 8.699 9.238 12.437h-31.357c6.843-13.618 21.931-12.387 22.119-12.437zm-154.72 45.935c0-10.2 8.298-18.499 18.499-18.499h378.826c10.2 0 18.499 8.299 18.499 18.499v253.28h-415.824zm135.612 268.28h144.6v7.539c0 4.156-3.382 7.538-7.539 7.538h-129.522c-4.157 0-7.539-3.382-7.539-7.538zm273.071 45.155h-401.542c-22.182 0-40.229-18.047-40.229-40.229 0-2.716 2.209-4.926 4.925-4.926h148.775v7.539c0 12.428 10.111 22.538 22.539 22.538h129.522c12.428 0 22.539-10.11 22.539-22.538v-7.539h148.775c2.716 0 4.925 2.21 4.925 4.926 0 22.182-18.047 40.229-40.229 40.229z" data-original="#000000" class="active-path" data-old_color="#000000" fill="#1959c8"/><path d="m256 115.597c17.221 0 31.231-14.011 31.231-31.231s-14.01-31.23-31.231-31.23-31.231 14.01-31.231 31.23 14.01 31.231 31.231 31.231zm0-47.462c8.95 0 16.231 7.281 16.231 16.23 0 8.95-7.281 16.231-16.231 16.231s-16.231-7.281-16.231-16.231c0-8.949 7.281-16.23 16.231-16.23z" data-original="#000000" class="active-path" data-old_color="#000000" fill="#1959c8"/></g></g></g> </svg>
